<?xml version="1.0" standalone="no"?>
<!DOCTYPE svg PUBLIC "-//W3C//DTD SVG 20010904//EN"
 "http://www.w3.org/TR/2001/REC-SVG-20010904/DTD/svg10.dtd">
<svg version="1.0" xmlns="http://www.w3.org/2000/svg"
 width="512.000000pt" height="512.000000pt" viewBox="0 0 512.000000 512.000000"
 preserveAspectRatio="xMidYMid meet">
<metadata>
Created by potrace 1.11, written by Peter Selinger 2001-2013
</metadata>
<g transform="translate(0.000000,512.000000) scale(0.100000,-0.100000)"
fill="#000000" stroke="none">
<path d="M2315 5104 c-453 -66 -787 -280 -937 -599 l-30 -64 -36 14 c-135 50
-321 52 -487 4 -61 -17 -194 -86 -253 -130 -282 -213 -408 -547 -337 -898 7
-33 37 -118 62 -171 113 -242 368 -435 627 -475 22 -3 41 -7 42 -8 2 -2 9 -86
19 -237 3 -36 7 -87 10 -115 2 -27 7 -90 10 -140 3 -49 8 -106 10 -125 2 -19
7 -78 10 -130 4 -52 8 -115 10 -140 2 -25 6 -79 10 -120 3 -41 7 -100 10 -130
3 -30 7 -91 10 -135 3 -44 7 -102 10 -130 2 -27 7 -86 10 -130 3 -44 8 -100
10 -125 3 -25 7 -85 10 -135 3 -49 8 -110 10 -135 2 -25 7 -83 10 -130 3 -47
8 -101 10 -120 2 -19 6 -75 10 -125 3 -49 8 -108 10 -130 2 -22 7 -87 10 -145
7 -116 25 -167 65 -187 20 -10 311 -13 1333 -13 1196 0 1310 1 1333 16 44 29
49 45 59 194 4 52 8 111 10 130 2 19 6 78 10 130 4 52 8 111 10 130 2 19 6 80
10 135 4 54 9 107 10 117 2 10 7 66 10 125 3 60 8 124 10 143 1 19 6 80 10
135 3 55 8 111 10 125 2 14 6 68 10 120 3 52 7 118 10 145 7 77 17 205 20 255
5 79 15 213 20 260 2 25 7 81 10 125 3 44 8 107 10 140 8 100 13 165 20 260 4
50 8 91 9 92 1 1 20 5 42 8 267 41 524 241 637 496 21 47 39 104 36 111 0 2 5
16 11 32 30 81 31 283 1 403 -71 286 -289 529 -556 620 -184 64 -415 62 -547
-3 -26 -14 -27 -13 -58 41 -145 254 -354 440 -603 539 -82 33 -210 65 -322 83
-75 11 -396 9 -480 -3z m441 -208 c70 -8 214 -44 290 -73 216 -84 402 -269
533 -530 22 -45 51 -89 63 -97 35 -25 80 -19 150 18 290 157 667 21 828 -298
109 -215 93 -456 -43 -656 -106 -155 -313 -269 -492 -270 -53 0 -106 -25 -123
-57 -11 -21 -18 -73 -27 -193 -3 -47 -8 -110 -10 -140 -3 -30 -7 -89 -10 -130
-3 -41 -8 -100 -10 -130 -10 -119 -14 -178 -20 -260 -4 -47 -8 -103 -10 -125
-2 -22 -6 -76 -10 -120 -3 -44 -8 -105 -10 -135 -2 -30 -7 -91 -10 -135 -3
-44 -8 -105 -11 -135 -2 -30 -6 -80 -8 -110 -10 -141 -19 -245 -21 -250 -2 -4
-512 -5 -587 -1 -16 1 -18 31 -20 397 l-3 396 -33 29 c-58 52 -145 28 -168
-46 -5 -16 -9 -198 -9 -402 1 -331 -1 -373 -14 -374 -68 -4 -293 0 -298 5 -4
3 -7 229 -7 502 l-1 496 -33 29 c-45 40 -99 40 -144 0 l-33 -29 -1 -497 c-1
-339 -4 -499 -11 -503 -9 -6 -200 -7 -294 -3 -14 1 -16 41 -16 389 0 368 -1
390 -19 415 -43 58 -110 63 -160 13 l-34 -34 0 -391 c0 -306 -3 -391 -12 -392
-43 -3 -589 -1 -592 2 -3 2 -7 45 -10 94 -4 50 -8 110 -11 135 -2 25 -7 83
-10 130 -3 47 -8 105 -10 130 -2 25 -6 81 -10 125 -7 99 -14 188 -21 280 -3
39 -7 93 -9 120 -2 28 -6 84 -10 125 -3 41 -8 105 -10 143 -3 37 -7 91 -9 120
-3 28 -7 81 -10 117 -3 36 -8 101 -11 145 -13 187 -21 212 -73 238 -15 8 -49
15 -77 16 -298 15 -560 249 -600 536 -30 216 35 408 190 561 173 171 419 238
618 168 23 -8 66 -29 96 -45 44 -25 62 -30 95 -26 54 8 79 38 100 122 66 262
299 464 639 554 163 43 391 57 583 37z m1022 -4045 c9 -1 11 -16 8 -58 -3 -32
-8 -96 -11 -143 -3 -47 -7 -101 -10 -120 -2 -19 -7 -82 -11 -140 -3 -58 -8
-116 -9 -130 -2 -14 -3 -30 -4 -36 -1 -7 -350 -10 -1181 -10 -1064 0 -1180 1
-1181 15 -1 9 -2 30 -4 46 -1 17 -5 71 -9 120 -4 50 -9 108 -11 130 -2 22 -6
76 -10 120 -3 44 -8 108 -11 142 -6 59 -5 62 18 65 19 2 2386 2 2426 -1z"/>
</g>
</svg>
